<svg>
    <symbol width="20" height="12" viewBox="0 0 20 12" xmlns="http://www.w3.org/2000/svg" id="vk">
        <path d="M19.891 10.6049C19.891 10.5504 19.8365 10.4959 19.8365 10.4959C19.5095 9.89646 18.8011 9.07902 17.8202 8.20708C17.3842 7.77111 17.1117 7.49864 17.0027 7.33515C16.7847 7.06267 16.7302 6.79019 16.8392 6.51771C16.9482 6.29973 17.2207 5.86376 17.7657 5.15531C18.0381 4.77384 18.2561 4.50136 18.4196 4.28338C19.6185 2.703 20.1635 1.66757 20 1.23161L19.9455 1.12261C19.891 0.959126 19.782 0.90463 19.6185 0.850135C19.455 0.795639 19.2371 0.795639 18.9646 0.850135H15.9673C15.9128 0.850135 15.8583 0.850135 15.7493 0.850135C15.6403 0.850135 15.6403 0.904631 15.6403 0.904631H15.5858L15.5313 0.959127C15.4768 0.959127 15.4768 1.01362 15.4223 1.06812C15.3678 1.12261 15.3678 1.17711 15.3134 1.23161C14.9864 2.04904 14.6049 2.86648 14.2234 3.57493C13.951 4.0109 13.733 4.39237 13.515 4.71934C13.297 5.04632 13.1335 5.2643 12.97 5.42779C12.8065 5.59128 12.6975 5.70027 12.5886 5.80926C12.4796 5.91825 12.3706 5.91825 12.3161 5.91825C12.2616 5.91825 12.2071 5.86376 12.1526 5.86376C12.0436 5.80926 11.9891 5.70027 11.9346 5.59128C11.8801 5.48229 11.8256 5.3733 11.8256 5.20981C11.8256 5.04632 11.7711 4.88283 11.7711 4.77384C11.7711 4.66485 11.7711 4.50136 11.7711 4.28338C11.7711 4.06539 11.7711 3.90191 11.7711 3.84741C11.7711 3.57493 11.7711 3.30245 11.7711 2.97548C11.7711 2.6485 11.7711 2.43052 11.7711 2.26703C11.7711 2.10354 11.7711 1.88556 11.7711 1.66757C11.7711 1.44959 11.7711 1.2861 11.7166 1.17711C11.7166 1.06812 11.6621 0.959126 11.6076 0.850135C11.5531 0.741143 11.4986 0.632151 11.3896 0.577655C11.2807 0.523159 11.1717 0.468664 11.0627 0.414168C10.6812 0.305176 10.2452 0.305176 9.64578 0.305176C8.33788 0.305176 7.52044 0.359671 7.13896 0.577655C6.97548 0.632151 6.86648 0.741143 6.75749 0.904631C6.6485 1.06812 6.59401 1.12261 6.703 1.17711C7.13896 1.23161 7.41144 1.39509 7.57493 1.61308L7.62943 1.72207C7.68392 1.83106 7.73842 1.99455 7.79292 2.21253C7.84741 2.43052 7.84741 2.703 7.90191 2.97548C7.9564 3.46594 7.9564 3.90191 7.90191 4.28338C7.84741 4.66485 7.84741 4.93733 7.79292 5.10082C7.73842 5.3188 7.73842 5.48229 7.62943 5.59128C7.57493 5.70027 7.52044 5.80926 7.52044 5.80926C7.52044 5.86376 7.46594 5.86376 7.46594 5.86376C7.35695 5.91825 7.30245 5.91825 7.19346 5.91825C7.08447 5.91825 6.97548 5.86376 6.86649 5.75477C6.703 5.64577 6.59401 5.53678 6.43052 5.3733C6.26703 5.20981 6.10354 4.99182 5.94005 4.66485C5.77657 4.33787 5.55858 4.0109 5.3406 3.57493L5.17711 3.24795C5.06812 3.02997 4.90463 2.75749 4.74114 2.37602C4.57766 1.99455 4.41417 1.66757 4.25068 1.2861C4.19619 1.17711 4.08719 1.06812 3.9782 0.959127H3.92371C3.86921 0.904631 3.81471 0.90463 3.76022 0.850135C3.70572 0.850135 3.59673 0.795639 3.54223 0.795639H0.708447C0.381471 0.795639 0.163488 0.904631 0.0544959 1.01362V1.06812C0 1.12261 0 1.17711 0 1.23161C0 1.2861 0 1.39509 0.0544959 1.50409C0.490463 2.48501 0.92643 3.41144 1.41689 4.33787C1.90736 5.2643 2.34332 5.97275 2.6703 6.51771C3.05177 7.06267 3.37875 7.60763 3.76022 8.09809C4.14169 8.58855 4.35967 8.91553 4.52316 9.02452C4.63215 9.18801 4.74114 9.24251 4.79564 9.3515L5.06812 9.62398C5.23161 9.78746 5.50409 10.0054 5.77657 10.2234C6.10354 10.4414 6.43052 10.6594 6.86649 10.9319C7.24796 11.1499 7.73842 11.3678 8.22888 11.4768C8.77384 11.6403 9.26431 11.6948 9.75477 11.6403H10.9537C11.1717 11.6403 11.3896 11.5313 11.4986 11.4223L11.5531 11.3678C11.6076 11.3133 11.6076 11.2589 11.6076 11.1499C11.6076 11.0409 11.6621 10.9864 11.6621 10.8774C11.6621 10.6049 11.6621 10.3324 11.7166 10.0599C11.7711 9.84196 11.8256 9.62398 11.8801 9.51498C11.9346 9.40599 12.0436 9.297 12.0981 9.18801C12.2071 9.07902 12.2616 9.07902 12.2616 9.02452C12.3161 9.02452 12.3161 8.97003 12.3706 8.97003C12.5341 8.91553 12.752 8.97003 12.97 9.13351C13.188 9.297 13.406 9.51499 13.624 9.73297C13.842 9.95095 14.0599 10.2234 14.3324 10.5504C14.6049 10.8229 14.8774 11.0954 15.0409 11.2044L15.2589 11.3133C15.4223 11.4223 15.5858 11.4768 15.8038 11.5313C16.0218 11.5858 16.2398 11.6403 16.4033 11.5858L19.0736 11.5313C19.346 11.5313 19.564 11.4768 19.673 11.4223C19.8365 11.3133 19.891 11.2589 19.9455 11.1499C20 11.0409 20 10.9319 19.9455 10.7684C19.9455 10.7684 19.9455 10.6594 19.891 10.6049Z" fill="#B3B3B3"/>
    </symbol>

    <symbol width="20" height="20" viewBox="0 0 20 20" fill="none" xmlns="http://www.w3.org/2000/svg" id="fb">
        <path d="M20 18.9101C20 19.5095 19.5095 20 18.9101 20H13.7875V12.2616H16.4033L16.7847 9.26431H13.7875V7.35695C13.7875 6.48501 14.0054 5.88556 15.2589 5.88556H16.8392V3.16076C16.5668 3.10627 15.6403 3.05177 14.4959 3.05177C12.2071 3.05177 10.6267 4.46866 10.6267 7.02997V9.26431H8.0109V12.2616H10.6267V20H1.08992C0.490463 20 0 19.5095 0 18.9101V1.08992C0 0.490463 0.490463 0 1.08992 0H18.9101C19.5095 0 20 0.490463 20 1.08992V18.9101Z" fill="#B3B3B3"/>
    </symbol>

    <symbol width="20" height="20" viewBox="0 0 20 20" fill="none" xmlns="http://www.w3.org/2000/svg" id="inst">
        <path d="M17.6022 0H2.39782C1.08992 0 0 1.03542 0 2.34332V17.6567C0 18.9646 1.08992 20 2.39782 20H17.6022C18.9101 20 20 18.9646 20 17.6567V2.34332C20 1.03542 18.9101 0 17.6022 0ZM14.3869 3.10627C14.3869 2.77929 14.6594 2.50681 14.9864 2.50681H16.8937C17.2207 2.50681 17.4932 2.77929 17.4932 3.10627V4.95913C17.4932 5.2861 17.2207 5.55858 16.8937 5.55858H15.0409C14.7139 5.55858 14.4414 5.2861 14.4414 4.95913L14.3869 3.10627ZM10.0272 6.15804C12.1526 6.15804 13.8965 7.84741 13.8965 9.97275C13.8965 12.0981 12.1526 13.7875 10.0272 13.7875C7.90191 13.7875 6.15804 12.0981 6.15804 9.97275C6.15804 7.90191 7.90191 6.15804 10.0272 6.15804ZM18.0926 17.4932C18.0926 17.8202 17.8202 18.0926 17.4932 18.0926H2.50681C2.17984 18.0926 1.90736 17.8202 1.90736 17.4932V8.11989H4.35967C4.0327 8.61035 3.92371 9.48229 3.92371 10.0272C3.92371 13.3515 6.6485 16.0763 10.0272 16.0763C13.406 16.0763 16.1308 13.3515 16.1308 10.0272C16.1308 9.48229 16.0763 8.61035 15.6403 8.11989H18.1471L18.0926 17.4932Z" fill="#B3B3B3"/>
    </symbol>

    <symbol width="20" height="18" viewBox="0 0 20 18" fill="none" xmlns="http://www.w3.org/2000/svg" id="twt">
        <path d="M19.455 1.01613C18.6376 1.5066 17.7657 1.83357 16.8392 2.05155C16.0763 1.23412 15.0409 0.743652 13.842 0.743652C11.5531 0.743652 9.75477 2.65101 9.75477 4.93984C9.75477 5.26681 9.80926 5.59379 9.86376 5.92076C6.43052 5.70278 3.43324 4.01341 1.41689 1.4521C1.08992 2.05155 0.871935 2.8145 0.871935 3.57744C0.871935 5.04883 1.58038 6.30224 2.7248 7.06518C2.07084 7.06518 1.41689 6.84719 0.871935 6.52022V6.62921C0.871935 8.64556 2.28883 10.3894 4.14169 10.7709C3.81471 10.8799 3.43324 10.9344 3.05177 10.9344C2.77929 10.9344 2.50681 10.9344 2.28883 10.8799C2.83379 12.5693 4.30518 13.7682 6.10354 13.8227C4.68665 14.9671 2.94278 15.621 0.980926 15.621C0.653951 15.621 0.326975 15.621 0 15.5665C1.79837 16.7654 3.9782 17.4739 6.26703 17.4739C13.842 17.4739 17.9292 11.0434 17.9292 5.4848C17.9292 5.32131 17.9292 5.10332 17.9292 4.93984C18.7466 4.34038 19.455 3.63194 20 2.76C19.2916 3.08698 18.4741 3.30496 17.6567 3.41395C18.4741 2.8145 19.1281 1.99706 19.455 1.01613Z" fill="#B3B3B3"/>
    </symbol>

    <symbol width="20" height="20" viewBox="0 0 20 20" fill="none" xmlns="http://www.w3.org/2000/svg" id="menu__sprite">
        <path d="M13.5556 10L19.3333 4.22222C20.2222 3.33333 20.2222 2 19.3333 1.22222L18.8889 0.777778C18 -0.111111 16.6667 -0.111111 15.8889 0.777778L10 6.44445L4.22222 0.666667C3.33333 -0.222222 2 -0.222222 1.11111 0.666667L0.666667 1.11111C-0.222222 2 -0.222222 3.33333 0.666667 4.11111L6.44445 10L0.666667 15.7778C-0.222222 16.6667 -0.222222 18 0.666667 18.7778L1.11111 19.3333C2 20.2222 3.33333 20.2222 4.11111 19.3333L10 13.5556L15.7778 19.3333C16.6667 20.2222 18 20.2222 18.7778 19.3333L19.2222 18.8889C20.1111 18 20.1111 16.6667 19.2222 15.8889L13.5556 10Z" fill="white"/>
    </symbol>

<!-- dropdown -->
    <symbol width="24" height="15" viewBox="0 0 24 15" fill="none" xmlns="http://www.w3.org/2000/svg" id='long'>
        <path d="M7.00642 4.09528L7.00723 0L0 7.00964L7.00723 14.0185L7.00642 9.9232L16.992 9.92481V14.0185L24 7.00964L16.992 0V4.09528H7.00642Z" fill="#010002"/>
    </symbol>

    <symbol width="18" height="18" viewBox="0 0 18 18" fill="none" xmlns="http://www.w3.org/2000/svg" id='width'>
        <path d="M3.4085 10.4797L0.51327 7.58335L0.514976 17.4948L10.4258 17.4959L7.52946 14.6007L14.5914 7.54097L17.4861 10.4356L17.4855 0.524211L7.57354 0.523074L10.4693 3.41887L3.4085 10.4797Z" fill="#010002"/>
    </symbol>

    <symbol width="24" height="24" viewBox="0 0 24 24" fill="none" xmlns="http://www.w3.org/2000/svg" id='thickness'>
        <path d="M22.5938 5.48438H1.45312C0.6765 5.48438 0.046875 6.114 0.046875 6.89062C0.046875 7.66725 0.6765 8.29688 1.45312 8.29688H22.5938C23.3704 8.29688 24 7.66725 24 6.89062C24 6.114 23.3704 5.48438 22.5938 5.48438Z" fill="black"/>
        <path d="M23.0625 0H0.9375C0.419719 0 0 0.419719 0 0.9375C0 1.45528 0.419719 1.875 0.9375 1.875H23.0625C23.5803 1.875 24 1.45528 24 0.9375C24 0.419719 23.5803 0 23.0625 0Z" fill="black"/>
        <path d="M21.6562 19.3125H2.39062C1.09622 19.3125 0.046875 20.3618 0.046875 21.6562C0.046875 22.9507 1.09622 24 2.39062 24H21.6562C22.9507 24 24 22.9507 24 21.6562C24 20.3618 22.9507 19.3125 21.6562 19.3125Z" fill="black"/>
        <path d="M22.125 11.9062H1.92188C0.886359 11.9062 0.046875 12.7457 0.046875 13.7812C0.046875 14.8168 0.886359 15.6562 1.92188 15.6562H22.125C23.1605 15.6562 24 14.8168 24 13.7812C24 12.7457 23.1605 11.9062 22.125 11.9062Z" fill="black"/>
    </symbol>

    <symbol width="18" height="24" viewBox="0 0 18 24" fill="none" xmlns="http://www.w3.org/2000/svg" id='life'>
        <path d="M17 22H16V18.727C16 17.099 15.307 15.541 14.097 14.453L12.404 12.93C12.137 12.689 11.99 12.359 11.99 12C11.99 11.641 12.137 11.311 12.404 11.071L14.097 9.548C15.307 8.458 16 6.901 16 5.273V2H17C17.553 2 18 1.552 18 1C18 0.448 17.553 0 17 0H1C0.447 0 0 0.448 0 1C0 1.552 0.447 2 1 2H2V5.273C2 6.901 2.693 8.459 3.903 9.547L5.596 11.07C5.863 11.311 6.01 11.641 6.01 12C6.01 12.359 5.863 12.689 5.596 12.929L3.903 14.452C2.693 15.542 2 17.099 2 18.727V22H1C0.447 22 0 22.448 0 23C0 23.552 0.447 24 1 24H17C17.553 24 18 23.552 18 23C18 22.448 17.553 22 17 22ZM5 18.829C5 18.094 5.286 17.404 5.806 16.884L8.47 14.22C8.763 13.927 9.238 13.927 9.531 14.22L12.195 16.884C12.715 17.404 13.001 18.094 13.001 18.829V22H5V18.829Z" fill="black"/>
    </symbol>

    <symbol width="24" height="24" viewBox="0 0 24 24" fill="none" xmlns="http://www.w3.org/2000/svg" id='weight'>
        <path d="M22.983 21.137L20.8878 8.62074C20.6908 7.4406 19.6687 6.57811 18.4724 6.57811H15.3245C15.6937 5.93501 15.9047 5.19002 15.9047 4.39667C15.9047 1.97245 13.9328 0 11.5081 0C9.08383 0 7.11138 1.97245 7.11138 4.39667C7.11138 5.19002 7.32246 5.93501 7.69158 6.57811H4.54367C3.34689 6.57811 2.32532 7.44164 2.12828 8.62178L0.0336613 21.1396C-0.0853925 21.8492 0.114764 22.5797 0.580061 23.1287C1.04588 23.6782 1.72901 24 2.44957 24H20.5686C21.2892 24 21.9723 23.6782 22.4381 23.1287C22.9029 22.5786 23.1025 21.8472 22.983 21.137ZM11.5086 2.56148C12.5203 2.56148 13.3438 3.38498 13.3438 4.39719C13.3438 5.40941 12.5203 6.23239 11.5086 6.23239C10.4964 6.23239 9.67286 5.40889 9.67286 4.39667C9.67286 3.38446 10.4964 2.56148 11.5086 2.56148Z" fill="black"/>
    </symbol>
<!-- slider -->
    <symbol width="15" height="29" viewBox="0 0 15 29" fill="none" xmlns="http://www.w3.org/2000/svg" id='sl__arrow-l'>
        <path d="M14 28L1.91422 15.9142C1.13317 15.1332 1.13317 13.8668 1.91421 13.0858L14 1" stroke="black" stroke-width="2" stroke-linecap="round"/>
    </symbol>

    <symbol width="15" height="29" viewBox="0 0 15 29" fill="none" xmlns="http://www.w3.org/2000/svg" id='sl__arrow-r'>
        <path d="M1 1L13.0858 13.0858C13.8668 13.8668 13.8668 15.1332 13.0858 15.9142L1 28" stroke="black" stroke-width="2" stroke-linecap="round"/>
    </symbol>

</svg>